<svg height="512pt" viewBox="0 -52 512.00075 512" width="512pt" xmlns="http://www.w3.org/2000/svg"><path d="m135.25 83.902344c8.941406-8.363282 20.976562-14.417969 33.128906-12.917969 7.738282.953125 15.292969 4.890625 22.964844 3.5 9.59375-1.742187 15.609375-10.933594 21.925781-18.359375 21.347657-25.097656 82.375-36.523438 89.710938-25.136719 4.683593 7.265625-10.902344 22.652344-10.589844 34.941407.515625 20.410156 19.835937 38.417968 40.238281 37.507812s38.039063-20.566406 36.734375-40.941406c-.5-7.820313-3.378906-15.496094-2.617187-23.292969.761718-7.800781 7.457031-16.023437 15.085937-14.226563 4.933594 1.164063 8.042969 5.910157 10.640625 10.265626 11.378906 19.070312 22.816406 38.261718 30.695313 59.019531 5.476562 14.4375 9.207031 29.550781 15.714843 43.554687 20.0625 43.136719 65.648438 74.335938 72.296876 121.441406 5.941406 42.074219-21.503907 80.820313-47.488282 114.449219-8.808594 11.394531-17.882812 23.039063-30.105468 30.660157-12.222657 7.621093-27.015626 1.109374-45.761719-.296876-26.996094 2.503907-50.082031-8.742187-62.761719-32.699218-3.144531-5.941406-5.4375-12.367188-9.292969-17.875-3.855469-5.507813-9.785156-10.15625-16.511719-10.195313-6.722656-.035156-7.480468 11.878907-18.742187 14.339844-8.933594.84375-19.648437-44.203125-44.257813-46.078125-24.609374-1.878906-48.394531 8.109375-71.058593 17.875-20.574219 8.867188-41.160157 17.722656-61.746094 26.558594-8.308594 3.566406-16.808594 7.179687-25.820313 7.867187-11.992187.914063-24.292968-3.734375-32.675781-12.351562-3.554687-6.792969 9.398438-22.195313 5.410157-33.425781-4.882813-13.757813-14.84375-23.742188-36.09375-48.046876-17.292969-22.257812-14.082032-49.886718-13.96875-53.382812.472656-14.355469 4.023437-17.277344 16.25-23.195312 24.285156-11.757813 46.671874-27.414063 66.101562-46.125 30.625-29.484376 36.714844-48.589844 52.59375-63.433594zm0 0" fill="#4caf50"/><path d="m272.078125 30.988281c4.679687 7.265625-10.90625 22.652344-10.59375 34.941407.519531 20.410156 19.835937 38.417968 40.238281 37.507812 4.847656-.214844 9.535156-1.5 13.855469-3.59375-12.976563-6.160156-22.820313-19.425781-23.1875-33.914062-.308594-12.289063 15.273437-27.675782 10.59375-34.941407-3.289063-5.105469-17.371094-5.621093-33.828125-2.378906 1.308594.636719 2.304688 1.425781 2.921875 2.378906zm0 0" fill="#43a047"/><path d="m511.179688 259.257812c-6.648438-47.105468-52.234376-78.304687-72.292969-121.441406-6.511719-14.003906-10.238281-29.117187-15.71875-43.554687-7.878907-20.757813-19.316407-39.953125-30.691407-59.019531-2.597656-4.355469-5.707031-9.101563-10.644531-10.265626-7.628906-1.796874-14.324219 6.425782-15.085937 14.226563-.152344 1.546875-.15625 3.09375-.066406 4.632813 9.617187 16.269531 18.882812 32.78125 25.582031 50.425781 5.480469 14.4375 9.207031 29.550781 15.71875 43.554687 20.058593 43.136719 65.644531 74.335938 72.296875 121.441406 5.941406 42.074219-21.503906 80.824219-47.492188 114.449219-8.804687 11.398438-17.878906 23.039063-30.101562 30.660157-.773438.480468-1.554688.90625-2.347656 1.28125 13.007812 2.101562 23.886718 4.558593 33.253906-1.28125 12.222656-7.621094 21.292968-19.261719 30.101562-30.660157 25.984375-33.628906 53.429688-72.375 47.488282-114.449219zm0 0" fill="#43a047"/><path d="m170.496094 67.28125c0 48.457031-56.660156 114.050781-66.960938 114.050781-10.304687 0-66.964844-65.59375-66.964844-114.050781 0-37.15625 29.980469-67.28125 66.964844-67.28125 36.980469 0 66.960938 30.125 66.960938 67.28125zm0 0" fill="#ff4081"/><path d="m103.535156 0c-5.324218 0-10.492187.640625-15.453125 1.820312 29.527344 7.011719 51.507813 33.648438 51.507813 65.460938 0 35.960938-31.203125 81.355469-51.507813 102.378906 7.050781 7.304688 12.792969 11.671875 15.453125 11.671875 10.300782 0 66.960938-65.59375 66.960938-114.050781 0-37.15625-29.980469-67.28125-66.960938-67.28125zm0 0" fill="#ed3e79"/><path d="m103.535156 103.511719c-19.882812 0-36.058594-16.253907-36.058594-36.230469s16.175782-36.226562 36.058594-36.226562c19.878906 0 36.054688 16.25 36.054688 36.226562s-16.175782 36.230469-36.054688 36.230469zm0 0" fill="#ffd740"/><path d="m103.535156 23.554688c-24.019531 0-43.558594 19.617187-43.558594 43.726562 0 24.113281 19.539063 43.730469 43.558594 43.730469 24.015625 0 43.554688-19.617188 43.554688-43.730469 0-24.109375-19.539063-43.726562-43.554688-43.726562zm0 72.457031c-15.746094 0-28.558594-12.886719-28.558594-28.730469 0-15.839844 12.8125-28.726562 28.558594-28.726562s28.554688 12.886718 28.554688 28.726562c0 15.84375-12.808594 28.730469-28.554688 28.730469zm0 0" fill="#fff7e6"/></svg>