<?xml version="1.0" encoding="iso-8859-1"?>
<!-- Generator: Adobe Illustrator 22.1.0, SVG Export Plug-In . SVG Version: 6.00 Build 0)  -->
<svg xmlns="http://www.w3.org/2000/svg" xmlns:xlink="http://www.w3.org/1999/xlink" version="1.1" id="Layer_1_1_" x="0px" y="0px" viewBox="0 0 64 64" style="enable-background:new 0 0 64 64;" xml:space="preserve" width="512" height="512">
<linearGradient id="SVGID_1_" gradientUnits="userSpaceOnUse" x1="32" y1="63" x2="32" y2="1">
	<stop offset="0" style="stop-color:#9F2FFF"/>
	<stop offset="1" style="stop-color:#0BB1D3"/>
</linearGradient>
<path style="fill:url(#SVGID_1_);" d="M28,5h6v2h-6V5z M36,7h2V5h-2V7z M24,7h2V5h-2V7z M29,59h6v-2h-6V59z M61.227,27.771  L63,28.223v7.555l-1.773,0.451c-0.091,0.239-0.191,0.478-0.3,0.716l0.937,1.578l-5.341,5.341l-1.578-0.937  c-0.238,0.108-0.477,0.209-0.716,0.3L53.777,45H50v13c0,2.757-2.243,5-5,5H19c-2.757,0-5-2.243-5-5v-8.041  C12.847,50.625,11.532,51,10.167,51c-3.005,0-5.782-1.797-7.074-4.579L2.433,45h7.05l1.412-2l-1.412-2h-7.05l0.66-1.421  C4.385,36.797,7.162,35,10.167,35c1.365,0,2.68,0.375,3.833,1.041v-8.917h2V37.7c0.35,0.401,0.675,0.828,0.943,1.3H18V25h-2v-3h-4  v0.414l-2.646,2.646L1,23.867v-5.734l8.354-1.193L12,19.586V20h4v-3h2v-4h28v4h-2v-2H20v2h13c2.206,0,4,1.794,4,4s-1.794,4-4,4H20  v14h13c2.206,0,4,1.794,4,4s-1.794,4-4,4H20v2h24v-2h2v4H18v-4h-1.057c-0.268,0.472-0.593,0.899-0.943,1.3V53h32v-8h-1.777  l-0.451-1.773c-0.239-0.091-0.478-0.191-0.716-0.3l-1.578,0.937l-5.341-5.341l0.937-1.578c-0.108-0.238-0.209-0.477-0.3-0.716  L37,35.777v-7.555l1.773-0.451c0.091-0.239,0.191-0.478,0.3-0.716l-0.937-1.578l5.341-5.341l1.578,0.937  c0.238-0.108,0.477-0.209,0.716-0.3L46.223,19H48v-8H16v4h-2V6c0-2.757,2.243-5,5-5h26c2.757,0,5,2.243,5,5v13h3.777l0.451,1.773  c0.239,0.091,0.478,0.191,0.716,0.3l1.578-0.937l5.341,5.341l-0.937,1.578C61.035,27.294,61.136,27.532,61.227,27.771z M48,9V6  c0-1.654-1.346-3-3-3H19c-1.654,0-3,1.346-3,3v3H48z M10,20.414l-1.354-1.354L3,19.867v2.266l5.646,0.807L10,21.586V20.414z M18,23  h15c1.103,0,2-0.897,2-2s-0.897-2-2-2H18V23z M10.167,49c2.23,0,4.295-1.343,5.26-3.421L15.696,45H33c1.103,0,2-0.897,2-2  s-0.897-2-2-2H15.696l-0.27-0.579C14.462,38.343,12.397,37,10.167,37c-1.668,0-3.244,0.751-4.336,2h4.687l2.826,4l-2.826,4H5.831  C6.923,48.249,8.499,49,10.167,49z M48,58v-3H16v3c0,1.654,1.346,3,3,3h26C46.654,61,48,59.654,48,58z M61,29.777l-1.32-0.336  l-0.17-0.525c-0.155-0.48-0.359-0.97-0.607-1.454l-0.251-0.491l0.698-1.177l-3.144-3.144l-1.177,0.698l-0.491-0.251  c-0.484-0.248-0.974-0.452-1.454-0.607l-0.525-0.17L52.223,21h-4.445l-0.336,1.32l-0.525,0.17c-0.48,0.155-0.97,0.359-1.454,0.607  l-0.491,0.251l-1.177-0.698l-3.144,3.144l0.698,1.177l-0.251,0.491c-0.248,0.484-0.452,0.974-0.607,1.454l-0.17,0.525L39,29.777  v4.445l1.32,0.336l0.17,0.525c0.155,0.48,0.359,0.97,0.607,1.454l0.251,0.491l-0.698,1.177l3.144,3.144l1.177-0.698l0.491,0.251  c0.484,0.248,0.974,0.452,1.454,0.607l0.525,0.17L47.777,43h4.445l0.336-1.32l0.525-0.17c0.48-0.155,0.97-0.359,1.454-0.607  l0.491-0.251l1.177,0.698l3.144-3.144l-0.698-1.177l0.251-0.491c0.248-0.484,0.452-0.974,0.607-1.454l0.17-0.525L61,34.223V29.777z   M57,32c0,3.859-3.141,7-7,7s-7-3.141-7-7s3.141-7,7-7S57,28.141,57,32z M55,32c0-2.757-2.243-5-5-5s-5,2.243-5,5s2.243,5,5,5  S55,34.757,55,32z"/>
</svg>
