<svg height="512pt" viewBox="-19 0 512 512.00156" width="512pt" xmlns="http://www.w3.org/2000/svg"><path d="m222.898438 292.988281-3.972657 19.6875c-.671875 3.398438-.996093 6.859375-.96875 10.328125-.015625 8.179688-1.921875 16.246094-5.5625 23.570313l-6.53125 13.0625c-3.683593 7.308593-5.589843 15.386719-5.5625 23.570312v21.804688c-.027343.710937.03125 1.421875.175781 2.117187l7.59375 38.136719c.667969 3.226563.484376 6.574219-.53125 9.710937l-5.5625 16.507813c-1.128906 3.394531-1.25 7.042969-.351562 10.503906l3.882812 15.710938c2.113282 8.417969 9.683594 14.316406 18.363282 14.300781 7.152344-.023438 13.695312-4.042969 16.949218-10.414062l3-6.003907c.355469-.792969.707032-1.675781.972657-2.472656l7.679687-22.863281c.449219-1.59375 1.335938-3.03125 2.558594-4.148438l1.5-1.5c3.554688-3.5625 5.554688-8.386718 5.5625-13.417968v-12.886719c-.007812-3.730469 1.0625-7.378907 3.089844-10.507813l13.949218-20.832031c.339844-.605469.789063-1.144531 1.324219-1.589844l15.183594-15.183593c1.144531-1.140626 2.53125-2.015626 4.058594-2.558594l12.09375-3.972656c7.210937-2.417969 12.078125-9.167969 12.09375-16.773438-.027344-8.09375 5.472656-15.164062 13.332031-17.125l14.035156-3.53125c5.011719-1.214844 9.238282-4.574219 11.5625-9.179688l14.035156-28.070312 16.332032-32.753906c.859375-1.648438 2.101562-3.070313 3.621094-4.148438l23.304687-15.445312 1.585937-1.324219 23.484376-23.484375c1.488281-1.496094 2.503906-3.398438 2.910156-5.472656l7.769531-38.929688c.269531-1.359375.808594-2.648437 1.589844-3.792968l9.972656-15.007813c5.898437-8.851563 7.488281-19.886719 4.339844-30.039063-3.152344-10.15625-10.710938-18.351562-20.582031-22.308593l-3.707032-1.5-43.519531-17.390625c-.425781-.1875-.871094-.335938-1.324219-.441406l-34.605468-8.652344c4.984374-5.097656 5.546874-13.054688 1.324218-18.800782l-15.800781-21.101562c-2.019531-2.640625-5.144531-4.207031-8.472656-4.234375h-25.6875c-2.808594-.023437-5.496094-1.128906-7.503907-3.089844l-21.097656-21.097656c-1.476562-1.472656-3.347656-2.484375-5.386718-2.914063l-40.960938-8.210937-18.890625-4.675781c-9.867187-2.488282-20.320313-.941406-29.046875 4.292968-8.730469 5.234376-15.015625 13.722657-17.472656 23.601563l-4.855469 19.417969c-8.828125 37.078125-29.132813 110.742187 3.195313 144.949218 32.328124 34.207032 49.503906 76.890626 45.53125 96.574219zm0 0" fill="#4fba6f"/><path d="m114.945312 202.332031 87.386719-87.390625c17.238281-17.234375 45.183594-17.234375 62.421875 0 3.449219 3.449219 3.449219 9.039063 0 12.484375l-137.324218 137.328125c-3.449219 3.445313-9.039063 3.445313-12.484376 0-17.238281-17.238281-17.238281-45.183594 0-62.421875zm0 0" fill="#e64c3c"/><path d="m202.332031 114.945312-87.386719 87.382813-71.050781-99.46875 59.585938-58.527344zm0 0" fill="#c03a2b"/><path d="m177.367188 214.820312 99.988281 74.789063c3.503906 2.335937 8.167969 1.878906 11.148437-1.101563 2.976563-2.976562 3.4375-7.640624 1.097656-11.144531l-74.777343-99.996093zm0 0" fill="#bdc3c7"/><path d="m2.585938 89.972656 87.390624-87.386718c3.445313-3.449219 9.035157-3.449219 12.484376 0 17.234374 17.238281 17.234374 45.183593 0 62.421874l-37.453126 37.449219c-17.238281 17.238281-45.183593 17.238281-62.421874 0-3.445313-3.445312-3.445313-9.035156 0-12.484375zm0 0" fill="#e64c3c"/></svg>